<svg width="173" height="52" viewBox="0 0 173 52" fill="none" xmlns="http://www.w3.org/2000/svg">
<g clip-path="url(#clip0_103_527)">
<path d="M25.9585 37.9175C23.2599 40.2927 19.7473 41.5227 15.6779 41.5227C7.19643 41.5227 0 35.2878 0 26.2534C0 17.219 7.19643 10.9841 15.6779 10.9841C19.7045 10.9841 23.1742 12.2565 25.7872 14.5045L21.6321 19.1277C20.1329 18.1098 18.1196 17.3887 16.1063 17.3887C10.8375 17.3887 7.19643 21.1212 7.19643 26.2534C7.19643 31.3856 10.8375 35.1181 16.1063 35.1181C18.2052 35.1181 20.347 34.3122 21.8463 33.1246L25.9585 37.9175ZM36.4105 11.1113V41.0986H29.6424V11.1113H36.4105ZM51.8314 18.6611C56.886 18.6611 63.5684 22.4361 63.5684 30.1556C63.5684 37.9175 56.886 41.5227 51.8314 41.5227C46.7768 41.5227 40.0944 37.9175 40.0944 30.1556C40.0944 22.4361 46.7768 18.6611 51.8314 18.6611ZM51.8314 24.5568C49.2613 24.5568 46.6483 26.5079 46.6483 30.1556C46.6483 33.676 49.2613 35.6271 51.8314 35.6271C54.4016 35.6271 57.0574 33.676 57.0574 30.1556C57.0574 26.5079 54.4016 24.5568 51.8314 24.5568ZM75.3911 41.4379C71.2361 41.4379 66.9953 38.6809 66.9953 31.6825V19.0429H73.7634V31.2159C73.7634 34.5667 74.92 35.6271 77.0617 35.6271C80.1031 35.6271 81.8594 32.7004 82.2877 31.428V19.0429H89.0558V41.0986H82.2877V37.2812C81.8594 38.3416 79.5891 41.4379 75.3911 41.4379ZM109.446 11.1113H116.214V21.8847V41.0986H109.446V38.893C109.146 39.6565 107.133 41.5227 103.706 41.5227C98.6082 41.5227 92.7397 37.9175 92.7397 30.0283C92.7397 22.4361 98.6082 18.6611 103.706 18.6611C107.133 18.6611 109.146 20.6122 109.446 21.0788V11.1113ZM104.691 35.6271C107.475 35.6271 109.746 33.7184 109.746 30.0283C109.746 26.4655 107.475 24.5568 104.691 24.5568C101.778 24.5568 99.2936 26.5079 99.2936 30.0283C99.2936 33.676 101.778 35.6271 104.691 35.6271Z" fill="#6448FF"/>
<path d="M138.432 6.20038C138.432 2.77597 135.649 0 132.216 0C128.783 0 126 2.77597 126 6.20038C126 9.62565 128.783 12.4008 132.216 12.4008C135.649 12.4008 138.432 9.62565 138.432 6.20038ZM130.859 3.29181C130.184 3.60577 129.636 4.14727 129.315 4.81796C129.205 5.04807 128.974 5.18238 128.734 5.18238C128.641 5.18238 128.546 5.16271 128.457 5.11908C128.136 4.96595 128.001 4.58356 128.154 4.26362C128.604 3.32603 129.371 2.56809 130.315 2.12839C130.636 1.97783 131.019 2.11727 131.17 2.43806C131.32 2.75972 131.181 3.14211 130.859 3.29181ZM161.167 9.79417C157.344 9.79417 154.035 11.9747 152.409 15.1562C152.983 15.3461 153.541 15.5702 154.09 15.8115C154.795 14.536 155.877 13.494 157.205 12.8755C157.526 12.7258 157.909 12.8636 158.06 13.1861C158.21 13.5069 158.071 13.8893 157.75 14.039C156.69 14.5317 155.824 15.3581 155.25 16.3684C160.026 18.8629 163.624 23.3053 164.956 28.6408C168.503 27.1609 171 23.6732 171 19.602C171 14.1853 166.598 9.79417 161.167 9.79417ZM146.429 15.477C136.611 15.477 128.623 23.4448 128.623 33.2389C128.623 43.0322 136.61 51 146.429 51C156.248 51 164.235 43.0331 164.235 33.2389C164.235 23.4448 156.247 15.477 146.429 15.477ZM140.516 20.2924C137.457 21.7159 134.971 24.171 133.515 27.2054C133.405 27.4363 133.175 27.5706 132.935 27.5706C132.842 27.5706 132.747 27.551 132.658 27.5082C132.337 27.3551 132.201 26.9718 132.355 26.6527C133.938 23.3498 136.643 20.6782 139.972 19.1298C140.295 18.9793 140.677 19.1195 140.827 19.4403C140.977 19.7611 140.838 20.1427 140.516 20.2924Z" fill="url(#paint0_linear_103_527)"/>
</g>
<defs>
<linearGradient id="paint0_linear_103_527" x1="148.5" y1="0" x2="148.5" y2="51" gradientUnits="userSpaceOnUse">
<stop stop-color="#6448FF"/>
<stop offset="1" stop-color="#5508D9"/>
</linearGradient>
<clipPath id="clip0_103_527">
<rect width="173" height="52" fill="white"/>
</clipPath>
</defs>
</svg>
