<svg width="84" height="84" viewBox="0 0 84 84" fill="none" xmlns="http://www.w3.org/2000/svg">
<g filter="url(#filter0_d_130_2)">
<rect x="10" y="8" width="64" height="64" rx="10" fill="#F3F3F3"/>
</g>
<path d="M32.7765 23.3493C32.7765 20.395 30.3641 18 27.3883 18C24.4124 18 22 20.395 22 23.3493C22 26.3045 24.4124 28.6987 27.3883 28.6987C30.3641 28.6987 32.7765 26.3045 32.7765 23.3493ZM26.2122 20.84C25.6271 21.1109 25.1521 21.578 24.8733 22.1567C24.7781 22.3552 24.5782 22.4711 24.37 22.4711C24.2897 22.4711 24.2072 22.4541 24.1299 22.4165C23.8518 22.2843 23.7344 21.9544 23.8675 21.6784C24.257 20.8695 24.9224 20.2156 25.7401 19.8363C26.0189 19.7064 26.3505 19.8267 26.4813 20.1034C26.6114 20.3809 26.491 20.7108 26.2122 20.84ZM52.4844 26.4499C49.1703 26.4499 46.3014 28.3311 44.8919 31.0759C45.39 31.2398 45.8732 31.4331 46.3498 31.6413C46.9608 30.5409 47.8983 29.6419 49.0498 29.1083C49.3279 28.9792 49.6602 29.098 49.791 29.3762C49.9211 29.653 49.8007 29.9829 49.5219 30.1121C48.603 30.5372 47.8529 31.2501 47.3548 32.1217C51.4949 34.2739 54.6135 38.1066 55.7681 42.7097C58.8428 41.4329 61.0076 38.4239 61.0076 34.9116C61.0076 30.2383 57.1917 26.4499 52.4844 26.4499ZM39.7088 31.3527C31.1983 31.3527 24.2741 38.2269 24.2741 46.6767C24.2741 55.1259 31.1975 62 39.7088 62C48.2202 62 55.1436 55.1266 55.1436 46.6767C55.1436 38.2269 48.2194 31.3527 39.7088 31.3527ZM34.583 35.5072C31.9313 36.7353 29.7761 38.8534 28.5145 41.4713C28.4186 41.6706 28.2194 41.7864 28.0112 41.7864C27.931 41.7864 27.8484 41.7695 27.7711 41.7326C27.4931 41.6005 27.3756 41.2698 27.5087 40.9945C28.881 38.1449 31.2258 35.84 34.1117 34.5042C34.3912 34.3743 34.7228 34.4953 34.8529 34.7721C34.983 35.0488 34.8625 35.378 34.583 35.5072Z" fill="url(#paint0_linear_130_2)"/>
<defs>
<filter id="filter0_d_130_2" x="0" y="0" width="84" height="84" filterUnits="userSpaceOnUse" color-interpolation-filters="sRGB">
<feFlood flood-opacity="0" result="BackgroundImageFix"/>
<feColorMatrix in="SourceAlpha" type="matrix" values="0 0 0 0 0 0 0 0 0 0 0 0 0 0 0 0 0 0 127 0" result="hardAlpha"/>
<feOffset dy="2"/>
<feGaussianBlur stdDeviation="5"/>
<feComposite in2="hardAlpha" operator="out"/>
<feColorMatrix type="matrix" values="0 0 0 0 0 0 0 0 0 0 0 0 0 0 0 0 0 0 0.1 0"/>
<feBlend mode="normal" in2="BackgroundImageFix" result="effect1_dropShadow_130_2"/>
<feBlend mode="normal" in="SourceGraphic" in2="effect1_dropShadow_130_2" result="shape"/>
</filter>
<linearGradient id="paint0_linear_130_2" x1="41.5038" y1="18" x2="41.5038" y2="62" gradientUnits="userSpaceOnUse">
<stop stop-color="#6448FF"/>
<stop offset="1" stop-color="#5508D9"/>
</linearGradient>
</defs>
</svg>
